<?xml version="1.0" encoding="utf-8"?>
<!-- Generator: Adobe Illustrator 16.0.0, SVG Export Plug-In . SVG Version: 6.00 Build 0)  -->
<!DOCTYPE svg PUBLIC "-//W3C//DTD SVG 1.1//EN" "http://www.w3.org/Graphics/SVG/1.1/DTD/svg11.dtd">
<svg version="1.1" id="Layer_1" xmlns="http://www.w3.org/2000/svg" xmlns:xlink="http://www.w3.org/1999/xlink" x="0px" y="0px"
	 width="612px" height="792px" viewBox="0 0 612 792" enable-background="new 0 0 612 792" xml:space="preserve">
<g enable-background="new    ">
	<path fill="#FFFFFF" d="M387.398,295.125l75.964,292.436l-152.334,94.926L163.41,589.785L387.398,295.125 M393.7,263.7L143,593.5
		L311,699l168.5-105L393.7,263.7L393.7,263.7z"/>
</g>
<g enable-background="new    ">
	<path fill="#FFFFFF" d="M268.661,131.585l193.286,456.857l-150.919,94.044l-152.061-95.491L268.661,131.585 M265,87L143,593.5
		L311,699l168.5-105L265,87L265,87z"/>
</g>
<g enable-background="new    ">
	<path fill="#FFFFFF" d="M172.493,351.064l283.349,241.183l-144.813,90.239l-153.526-96.411L172.493,351.064 M160.3,322.3L143,593.5
		L311,699l168.5-105L160.3,322.3L160.3,322.3z"/>
</g>
<g enable-background="new    ">
	<path fill="#FFFFFF" d="M443.837,422.457l20.655,164.399l-153.464,95.63l-141.634-88.943L443.837,422.457 M455,399L143,593.5
		L311,699l168.5-105L455,399L455,399z"/>
</g>
</svg>
